# xmcd
#
# Track frame offsets: 
#        150
#        19570
#        40262
#
# Disc length: 796 seconds
#
# Revision: 1
# Processed by: cddbd v1.5.2PL0 Copyright (c) Steve Scherf et al.
# Submitted via: ExactAudioCopyFreeDBPlugin 1.0
#
DISCID=18031a03
DTITLE=田村ゆかり - Baby's Breath
DYEAR=2002
DGENRE=Vocal
TTITLE0=Baby's Breath
TTITLE1=わがままな I LOVE YOU
TTITLE2=こっちを向いて
EXTD=
EXTT0=
EXTT1=
EXTT2=
PLAYORDER=
